<?xml version="1.0" encoding="UTF-8" standalone="no"?>
<svg
   xmlns:dc="http://purl.org/dc/elements/1.1/"
   xmlns:cc="http://creativecommons.org/ns#"
   xmlns:rdf="http://www.w3.org/1999/02/22-rdf-syntax-ns#"
   xmlns:svg="http://www.w3.org/2000/svg"
   xmlns="http://www.w3.org/2000/svg"
   xmlns:sodipodi="http://sodipodi.sourceforge.net/DTD/sodipodi-0.dtd"
   xmlns:inkscape="http://www.inkscape.org/namespaces/inkscape"
   width="169.64534mm"
   height="93.040421mm"
   viewBox="0 0 169.64534 93.040421"
   version="1.1"
   id="svg923"
   inkscape:export-filename="/home/pato/bitmap.png"
   inkscape:export-xdpi="96"
   inkscape:export-ydpi="96"
   inkscape:version="1.0.2 (e86c870879, 2021-01-15)"
   sodipodi:docname="dibujo.svg">
  <defs
     id="defs917" />
  <sodipodi:namedview
     id="base"
     pagecolor="#ffffff"
     bordercolor="#71C608"
     borderopacity="1.0"
     inkscape:pageopacity="0.0"
     inkscape:pageshadow="2"
     inkscape:zoom="0.67162162"
     inkscape:cx="335.03593"
     inkscape:cy="214.38799"
     inkscape:document-units="mm"
     inkscape:current-layer="layer1"
     inkscape:document-rotation="0"
     showgrid="false"
     inkscape:window-width="1366"
     inkscape:window-height="744"
     inkscape:window-x="0"
     inkscape:window-y="0"
     inkscape:window-maximized="1" />
  <metadata
     id="metadata920">
    <rdf:RDF>
      <cc:Work
         rdf:about="">
        <dc:format>image/svg+xml</dc:format>
        <dc:type
           rdf:resource="http://purl.org/dc/dcmitype/StillImage" />
        <dc:title />
      </cc:Work>
    </rdf:RDF>
  </metadata>
  <g
     inkscape:label="Capa 1"
     inkscape:groupmode="layer"
     id="layer1"
     transform="translate(-19.621725,-76.645009)">
    <path
       d="m 52.615584,169.15623 c 0.42334,-0.42333 0.52917,-0.87313 0.52917,-2.11667 0,-2.38125 -0.37042,-2.64583 -3.67771,-2.64583 -2.7252,0 -3.38666,-0.26458 -3.0427,-1.16417 0.23812,-0.60854 4.73604,-0.635 4.97416,-0.0265 0.0794,0.23812 0.47625,0.39687 0.9525,0.39687 0.71438,0 0.79375,-0.0794 0.79375,-0.79375 0,-0.44979 -0.23812,-1.03187 -0.52917,-1.32292 -0.47625,-0.47625 -0.87312,-0.52916 -3.70416,-0.52916 -3.91583,0 -4.23333,0.18521 -4.23333,2.61937 0,1.37584 0.0794,1.64042 0.68791,2.11667 0.60854,0.47625 1.08479,0.55562 3.28084,0.55562 2.06374,0 2.61937,0.0794 2.75166,0.39688 0.37042,0.97896 -0.0794,1.19062 -2.48708,1.19062 -1.82563,0 -2.35479,-0.0794 -2.48708,-0.39687 -0.0794,-0.23813 -0.47625,-0.39688 -0.9525,-0.39688 -0.71438,0 -0.79375,0.0794 -0.79375,0.79375 0,0.44979 0.23812,1.03188 0.52916,1.32292 0.47625,0.47625 0.87313,0.52917 3.70417,0.52917 2.83104,0 3.22791,-0.0529 3.70416,-0.52917 z m 9.26042,0 c 0.47625,-0.47625 0.52917,-0.87313 0.52917,-3.83646 0,-4.41854 0.0529,-4.36562 -4.23334,-4.36562 -4.28625,0 -4.23333,-0.0529 -4.23333,4.36562 0,4.41854 -0.0529,4.36563 4.23333,4.36563 2.83105,0 3.22792,-0.0529 3.70417,-0.52917 z m 2.91042,-1.19063 v -1.69333 l 2.59291,-0.0794 2.56646,-0.0794 0.0794,-0.84667 0.0794,-0.87312 h -2.64583 -2.67229 v -0.79375 -0.76729 l 3.38666,-0.0794 3.36021,-0.0794 0.0794,-0.84667 0.0794,-0.87312 h -4.23333 -4.25979 v 4.36562 4.36563 h 0.79375 0.79375 z m 12.69999,-1.71979 v -3.43958 h 1.7198 1.71979 v -0.92604 -0.92604 h -4.23334 -4.23333 v 0.92604 0.92604 h 1.71979 1.71979 v 3.43958 3.43959 h 0.79375 0.79375 z m 19.47334,3.04271 c 0.13229,-0.3175 0.66145,-0.39687 2.38125,-0.39687 1.746246,0 2.275406,0.0794 2.381246,0.39687 0.13229,0.29104 0.58208,0.39688 1.71979,0.39688 h 1.56104 v -3.43959 -3.43958 h 2.48708 c 2.03729,0 2.51354,0.0794 2.64583,0.42333 0.3175,0.82021 -0.34395,1.16417 -2.27541,1.16417 h -1.82563 l 2.46063,2.64583 2.46062,2.64584 h 5.10646 5.10646 l -0.0794,-0.84667 -0.0794,-0.87313 -3.36021,-0.0794 -3.38667,-0.0794 v -0.76729 -0.76729 l 2.59292,-0.0794 2.56646,-0.0794 0.0794,-0.84667 0.0794,-0.87312 h -2.64584 -2.67229 v -0.79375 -0.76729 l 3.38667,-0.0794 3.36021,-0.0794 0.0794,-0.84667 0.0794,-0.87312 h -4.23334 -4.25979 v 3.88937 3.88938 l -1.19062,-1.16417 -1.19063,-1.16417 0.79375,-0.635 c 0.71438,-0.55562 0.79375,-0.76729 0.79375,-2.19604 0,-2.48708 -0.23812,-2.61937 -4.7625,-2.61937 h -3.70416 v 4.18041 l -0.0265,4.15396 -2.01083,-4.18041 -2.010836,-4.18042 -1.5875,3.25437 c -0.84666,1.79917 -1.7727,3.75709 -2.06375,4.39209 l -0.47625,1.11125 h 0.79375 c 0.4498,0 0.84667,-0.15875 0.92605,-0.39688 z m 37.147486,-0.13229 c 0.47625,-0.47625 0.52917,-0.87313 0.52917,-3.83646 0,-4.49791 0.13229,-4.36562 -4.7625,-4.36562 h -3.70417 v 4.36562 4.36563 h 3.70417 c 3.36021,0 3.75708,-0.0529 4.23333,-0.52917 z m 9.73667,-0.3175 -0.0794,-0.87313 -3.36021,-0.0794 -3.38666,-0.0794 v -0.76729 -0.76729 l 2.59291,-0.0794 2.56646,-0.0794 0.0794,-0.84667 0.0794,-0.87312 h -2.64583 -2.67229 v -0.79375 -0.76729 l 3.38666,-0.0794 3.36021,-0.0794 0.0794,-0.84667 0.0794,-0.87312 h -4.23333 -4.25979 v 4.36562 4.36563 h 4.25979 4.23333 z m 8.78416,0.3175 c 0.42334,-0.42333 0.52917,-0.87313 0.52917,-2.11667 0,-2.38125 -0.37042,-2.64583 -3.67771,-2.64583 -2.72521,0 -3.38667,-0.26458 -3.04271,-1.16417 0.23813,-0.60854 4.73604,-0.635 4.97417,-0.0265 0.0794,0.23812 0.47625,0.39687 0.9525,0.39687 0.71437,0 0.79375,-0.0794 0.79375,-0.79375 0,-0.44979 -0.23813,-1.03187 -0.52917,-1.32292 -0.47625,-0.47625 -0.87312,-0.52916 -3.70416,-0.52916 -3.91584,0 -4.23334,0.18521 -4.23334,2.61937 0,1.37584 0.0794,1.64042 0.68792,2.11667 0.60854,0.47625 1.08479,0.55562 3.28083,0.55562 2.06375,0 2.61938,0.0794 2.75167,0.39688 0.37042,0.97896 -0.0794,1.19062 -2.48708,1.19062 -1.82563,0 -2.3548,-0.0794 -2.48709,-0.39687 -0.0794,-0.23813 -0.47625,-0.39688 -0.9525,-0.39688 -0.71437,0 -0.79375,0.0794 -0.79375,0.79375 0,0.44979 0.23813,1.03188 0.52917,1.32292 0.47625,0.47625 0.87312,0.52917 3.70417,0.52917 2.83104,0 3.22791,-0.0529 3.70416,-0.52917 z m 2.91042,-3.83646 v -4.36562 h -0.79375 -0.79375 v 4.36562 4.36563 h 0.79375 0.79375 z m 8.73125,3.83646 c 0.44979,-0.44979 0.52916,-0.87313 0.52916,-2.64583 v -2.11667 h -2.51354 -2.51354 v 0.92604 0.92604 h 1.71979 c 1.77271,0 1.95792,0.13229 1.56104,1.16417 -0.13229,0.34396 -0.60854,0.42333 -2.48708,0.42333 -2.67229,0 -2.64583,0.0265 -2.64583,-2.51354 0,-2.54 -0.0265,-2.51354 2.64583,-2.51354 1.82563,0 2.35479,0.0794 2.48708,0.39688 0.0794,0.23812 0.47625,0.39687 0.9525,0.39687 0.71438,0 0.79375,-0.0794 0.79375,-0.79375 0,-0.44979 -0.23812,-1.03187 -0.52916,-1.32292 -0.47625,-0.47625 -0.87313,-0.52916 -3.70417,-0.52916 -4.28625,0 -4.23333,-0.0529 -4.23333,4.36562 0,4.41854 -0.0529,4.36563 4.23333,4.36563 2.83104,0 3.22792,-0.0529 3.70417,-0.52917 z m 2.91041,-2.38125 c 0,-1.5875 0.10584,-2.91042 0.23813,-2.91042 0.13229,0 1.45521,1.32292 2.93687,2.91042 2.43417,2.59292 2.80459,2.91042 3.59834,2.91042 h 0.89958 v -4.36563 -4.36562 h -0.79375 -0.79375 v 2.91041 c 0,1.61396 -0.10583,2.91042 -0.23813,2.91042 -0.13229,0 -1.4552,-1.29646 -2.93687,-2.91042 -2.43417,-2.59291 -2.80458,-2.91041 -3.59833,-2.91041 h -0.89959 v 4.36562 4.36563 h 0.79375 0.79375 z m -79.957066,0.21167 1.16417,-2.46063 1.21708,2.46063 c 0.68792,1.32291 1.29646,2.43416 1.37583,2.43416 0.0794,0 1.05834,-1.905 2.16959,-4.23333 l 2.01083,-4.23333 h -0.84667 c -0.82021,0 -0.89958,0.10583 -2.03729,2.51354 -0.635,1.37583 -1.24354,2.48708 -1.32292,2.51354 -0.0794,0 -0.66145,-1.05833 -1.24354,-2.38125 -0.60854,-1.29646 -1.16416,-2.38125 -1.24354,-2.38125 -0.0794,0 -0.68791,1.11125 -1.37583,2.46063 l -1.21708,2.43416 -1.21709,-2.56646 c -1.16416,-2.48708 -1.24354,-2.59291 -2.06375,-2.59291 h -0.84666 l 1.71979,3.65125 c 0.9525,1.98437 1.87854,3.88937 2.03729,4.23333 0.13229,0.3175 0.34396,0.58208 0.42333,0.58208 0.0794,0 0.68792,-1.11125 1.29646,-2.43416 z m -16.08666,-9.86896 v -1.45521 h -2.9898 c -1.66687,0 -6.24416,-0.0794 -10.18645,-0.18521 l -7.19667,-0.15875 v -7.77875 -7.75229 h -1.11125 c -0.635,0 -1.93146,-0.0794 -2.91041,-0.18521 l -1.79917,-0.15875 v 9.57792 9.55146 h 13.09687 13.09688 z m 10.84791,-1.24354 c 0,-2.06375 0.10583,-2.96334 0.47625,-3.65125 0.44979,-0.89958 3.62479,-3.41313 12.72646,-10.05417 l 3.25437,-2.38125 h -2.8575 -2.8575 l -4.52437,3.01625 c -5.92667,3.96875 -10.53042,6.58813 -11.21833,6.37646 -0.7673,-0.23812 -4.41854,-2.72521 -9.28688,-6.32354 l -4.36562,-3.22792 -3.20146,0.13229 -3.20146,0.15875 6.74688,4.8948 c 3.6777,2.69875 7.19666,5.29166 7.77875,5.79437 1.50812,1.27 1.79916,2.16958 1.79916,5.31812 v 2.64584 h 4.36563 4.36562 z m 17.78,-3.70417 c -0.0529,-4.31271 0,-6.29708 0.21167,-6.42937 0.370406,-0.23813 6.482286,3.28083 14.155196,8.1227 3.36021,2.11667 6.45583,4.04813 6.93208,4.28625 0.74084,0.37042 2.06375,0.42334 10.26584,0.42334 h 9.41916 l 5.18583,-3.33375 c 2.83105,-1.82563 5.31813,-3.25438 5.5298,-3.175 0.1852,0.0794 1.61395,0.97896 3.12208,1.98437 1.53458,1.03188 3.78354,2.46063 5.02708,3.20146 l 2.24896,1.32292 5.84729,-0.0529 5.82083,-0.0794 -7.01145,-4.20688 c -3.86292,-2.32833 -7.22313,-4.445 -7.46125,-4.73604 -0.4498,-0.47625 -0.4498,-0.52917 0.23812,-1.11125 0.39688,-0.34396 2.59292,-1.74625 4.92125,-3.12208 9.78958,-5.90021 9.65729,-5.74146 5.92667,-5.74146 -2.56646,0 -4.39209,0.44979 -8.96938,2.14312 -5.74146,2.11667 -5.60916,2.11667 -10.26583,0.79375 -5.45042,-1.56104 -16.85396,-5.39749 -24.52687,-8.25499 -22.09271,-8.22855 -31.591246,-10.95375 -43.735616,-12.56771 -5.15938,-0.68792 -13.30854,-0.635 -17.4625,0.13229 -10.71562,1.93146 -19.71145,6.74687 -24.129996,12.91167 -1.164166,1.61395 -2.539999,4.68312 -2.407708,5.29166 0.05292,0.15875 1.455209,-0.82021 3.122084,-2.19604 5.87375,-4.86833 11.1125,-7.80521 17.54187,-9.86896 5.60917,-1.82562 6.19125,-1.905 14.23458,-2.06375 11.13896,-0.21166 16.48354,0.3175 25.18833,2.54 10.027706,2.56646 18.706036,6.05896 35.242496,14.15521 3.94229,1.93146 8.255,4.10104 9.60437,4.84187 l 2.46063,1.32292 -3.38667,1.93146 c -1.85208,1.05833 -5.37104,3.14854 -7.80521,4.65666 -2.43416,1.50813 -4.55083,2.75167 -4.73604,2.75167 -0.21166,0 -0.23812,-0.74083 -0.10583,-2.77812 0.10583,-1.53459 0.10583,-4.78896 0,-7.22313 l -0.18521,-4.41854 -2.40771,-1.27 c -1.32291,-0.68792 -2.4077,-1.21708 -2.43416,-1.19062 -0.0265,0.0529 0.0529,1.56104 0.15875,3.38666 0.23812,3.99521 0.29104,8.99583 0.10583,8.99583 -0.0794,0 -4.04812,-2.4077 -8.81062,-5.34458 -12.30313,-7.62 -14.10229,-8.67833 -14.52563,-8.67833 -0.5027,0 -3.651246,2.03729 -5.794366,3.75708 l -1.69333,1.37584 v 6.95854 6.985 l 2.7252,-0.0794 2.69875,-0.0794 z M 177.4989,137.53853 c 1.21709,-1.45521 4.23333,-4.97417 6.69396,-7.80521 2.48708,-2.83104 4.68312,-5.37104 4.89479,-5.60917 0.34396,-0.39687 0.26458,-0.52916 -0.87312,-1.19062 -5.74146,-3.36021 -10.98021,-8.70479 -15.05479,-15.29292 -2.2225,-3.62479 -1.98438,-3.41312 -4.28625,-3.94229 -5.10646,-1.19062 -10.08063,-3.4925 -13.99646,-6.429372 -2.06375,-1.561042 -2.48708,-2.010833 -3.22792,-3.518958 -1.56104,-3.148541 -5.10645,-14.790206 -5.10645,-16.721665 0,-0.555624 0.26458,-0.582083 -3.91584,0.423334 -2.83104,0.687916 -3.38666,0.978958 -6.00604,3.174999 -4.04812,3.413125 -6.21771,5.55625 -8.59895,8.493124 l -2.56646,3.201458 -2.61938,-0.211666 C 118.09995,91.739157 107.56954,89.913532 87.805164,86.077074 54.758714,79.6477 43.249344,78.0602 33.433299,78.53645 c -3.307291,0.15875 -13.652498,1.11125 -13.811248,1.27 -0.02646,0.05292 1.561042,0.238125 3.571875,0.396875 17.806456,1.534583 46.143328,6.561666 69.135618,12.250207 10.794996,2.672291 24.712076,6.693957 34.739786,10.080628 5.45041,1.82562 5.52979,1.85208 6.40291,1.42875 0.87313,-0.39688 0.89958,-0.4498 0.89958,-2.14313 0,-2.248957 0.42334,-6.297082 0.9525,-8.995832 0.87313,-4.392082 2.54,-8.54604 4.78896,-11.932706 1.00542,-1.534584 1.27,-1.693333 1.48167,-0.9525 1.74625,6.111874 3.51896,11.87979 3.99521,13.017498 0.71437,1.799167 6.37645,8.44021 8.28145,9.71021 0.71438,0.47625 3.22792,1.69333 5.63563,2.72521 5.37104,2.27541 6.61458,3.09562 8.94291,5.87374 2.98979,3.57188 5.715,6.00604 12.27667,10.90084 l 3.06916,2.30187 -1.74625,2.83104 c -2.48708,4.07458 -4.20687,7.03792 -5.34458,9.33979 -0.92604,1.82563 -1.13771,2.06375 -2.30187,2.56646 -0.79375,0.34396 -1.11125,0.60854 -0.87313,0.68792 0.21167,0.0529 0.58209,0.1852 0.79375,0.26458 0.74084,0.23812 0.97896,0.0265 3.175,-2.61937 z"
       id="path1545"
       style="fill:#71C608;fill-opacity:1;stroke:none;stroke-width:0.3;stroke-linecap:round;stroke-linejoin:bevel;stroke-miterlimit:4;stroke-dasharray:none;stroke-opacity:1;paint-order:normal"
       sodipodi:nodetypes="cssccssssssscscssssccsssssscccccccccccccccccccccccccccccccccccccccscscccscsccccccccccccccccccccccccccccccssccccccccsccssscccssccccccccccccccccccccccccccssccssssssscscsssscccccccccccsscccccssssscssssssssscscccccsscscccccscccsccscccscccscccscccsccccscccccccscccccccccccccscccscccssccccccccccccscccccccccccccccssccccccscscccccccccccccccsccccccccccccsccscscccccccccc" />
  </g>
</svg>
