<?xml version="1.0" encoding="UTF-8" standalone="no"?>
<svg
   width="169.64534mm"
   height="93.040421mm"
   viewBox="0 0 169.64534 93.040421"
   version="1.1"
   id="svg923"
   inkscape:export-filename="../../../../intento1.png"
   inkscape:export-xdpi="96"
   inkscape:export-ydpi="96"
   inkscape:version="1.2.1 (9c6d41e410, 2022-07-14, custom)"
   sodipodi:docname="logo.svg"
   xmlns:inkscape="http://www.inkscape.org/namespaces/inkscape"
   xmlns:sodipodi="http://sodipodi.sourceforge.net/DTD/sodipodi-0.dtd"
   xmlns="http://www.w3.org/2000/svg"
   xmlns:svg="http://www.w3.org/2000/svg"
   xmlns:rdf="http://www.w3.org/1999/02/22-rdf-syntax-ns#"
   xmlns:cc="http://creativecommons.org/ns#"
   xmlns:dc="http://purl.org/dc/elements/1.1/">
  <defs
     id="defs917">
    <rect
       x="18.951031"
       y="222.1482"
       width="539.05155"
       height="113.70619"
       id="rect168" />
    <rect
       x="56.853093"
       y="229.51804"
       width="481.14562"
       height="141.0799"
       id="rect531" />
  </defs>
  <sodipodi:namedview
     id="base"
     pagecolor="#ffffff"
     bordercolor="#666666"
     borderopacity="1.0"
     inkscape:pageopacity="0.0"
     inkscape:pageshadow="2"
     inkscape:zoom="1.3432432"
     inkscape:cx="300.39236"
     inkscape:cy="179.4165"
     inkscape:document-units="mm"
     inkscape:current-layer="layer1"
     inkscape:document-rotation="0"
     showgrid="false"
     inkscape:window-width="1600"
     inkscape:window-height="822"
     inkscape:window-x="0"
     inkscape:window-y="42"
     inkscape:window-maximized="1"
     inkscape:showpageshadow="2"
     inkscape:pagecheckerboard="0"
     inkscape:deskcolor="#d1d1d1"
     showguides="true" />
  <metadata
     id="metadata920">
    <rdf:RDF>
      <cc:Work
         rdf:about="">
        <dc:format>image/svg+xml</dc:format>
        <dc:type
           rdf:resource="http://purl.org/dc/dcmitype/StillImage" />
      </cc:Work>
    </rdf:RDF>
  </metadata>
  <g
     inkscape:label="Capa 1"
     inkscape:groupmode="layer"
     id="layer1"
     transform="translate(-19.621725,-76.645009)">
    <g
       aria-label="Vasak"
       id="text174"
       style="font-size:45.8611px;font-family:Chailce-Noggin;-inkscape-font-specification:Chailce-Noggin;fill:#71c608;stroke-width:0.264583;fill-opacity:1">
      <path
         d="m 32.393995,151.62059 -9.355664,-43.56804 q 0.596195,-0.18345 2.201333,-0.18345 1.651,0 7.429498,0.64206 l 7.337776,33.52446 q 0.04586,-0.18344 2.52236,-8.11741 2.522361,-7.93397 4.99886,-15.95967 2.4765,-8.02569 2.797527,-9.40152 0.871361,-0.27517 3.898194,-0.27517 h 1.69686 l 4.356805,0.36689 q -0.596194,2.38478 -13.483163,43.3846 -1.375833,0.0917 -3.76061,0.0917 -0.963084,0 -4.265083,-0.0917 -2.889249,-0.0917 -4.356804,-0.22931 -1.421694,-0.13758 -2.017889,-0.18344 z"
         id="path164"
         style="fill:#71c608;fill-opacity:1" />
      <path
         d="m 64.405015,135.59744 q 0,0 4.723694,-0.0917 0.275166,0.13758 0.963083,2.20133 0.687916,2.06375 0.779638,3.57716 -0.321027,0.0917 -1.650999,0.0917 -1.605139,0 -7.108471,0.18344 0,0 -2.751666,6.32883 -2.10961,0.0917 -2.247193,0.0917 h -1.054806 q -3.301999,-0.13758 -3.301999,-0.13758 1.972027,-6.0078 4.494388,-11.7863 7.383637,-17.06033 7.383637,-17.06033 1.972027,-0.18344 2.751666,-0.18344 l 4.677832,0.55033 q 1.008944,5.31989 4.58611,13.4373 1.605138,3.62303 3.164416,7.38364 1.559277,3.71475 2.338916,5.64091 l 0.779638,1.92617 q -0.458611,0.0917 -2.843388,0.0917 h -4.081638 q -0.183444,-0.64205 -2.201332,-5.73264 -1.972028,-5.09058 -3.898194,-9.86013 l -1.880305,-4.81542 q -1.467555,2.06375 -3.439582,7.65881 0,0.0917 -0.09172,0.27516 -0.09172,0.13759 -0.09172,0.22931 z"
         id="path166"
         style="fill:#71c608;fill-opacity:1" />
      <path
         d="m 94.581624,129.95652 q 10.639776,0 10.639776,9.53911 0,2.56822 -1.42169,4.35681 -1.37584,1.78858 -3.62303,2.52236 -2.247196,0.77963 -4.127501,1.0548 -1.834444,0.27517 -3.76061,0.27517 h -0.733777 q -1.559278,-0.0459 -3.256138,-0.45861 -1.696861,-0.36689 -2.614083,-0.77964 l -0.917222,-0.36689 q -0.183444,-1.14653 -0.183444,-3.76061 v -2.75167 q 2.843388,1.69686 7.337775,1.78859 h 0.8255 q 3.072694,0 4.356805,-0.50448 1.28411,-0.55033 1.28411,-1.78858 0,-0.73378 0,-0.96308 0,-0.22931 -0.229305,-0.91722 -0.229306,-0.73378 -0.642055,-1.05481 -0.41275,-0.32103 -1.375833,-0.64205 -0.917222,-0.36689 -2.247194,-0.41275 -2.017889,-0.0917 -3.118555,-0.18345 -1.100666,-0.0917 -2.705805,-0.55033 -1.605138,-0.50447 -2.476499,-1.32997 -0.8255,-0.8255 -1.467555,-2.38478 -0.642056,-1.60514 -0.642056,-3.89819 0,-8.0257 10.548053,-8.0257 h 0.871361 q 1.559277,0.0459 3.439582,0.5962 1.926166,0.50447 3.072696,1.00894 l 1.14653,0.55034 q 0.18344,1.14652 0.18344,3.76061 v 2.75166 q -2.797527,-1.28411 -5.961943,-2.24719 -1.559277,-0.45861 -3.210277,-0.45861 -3.623027,0 -3.623027,2.29305 0,1.74272 1.23825,2.38478 1.23825,0.59619 3.393721,0.59619 z"
         id="path168"
         style="fill:#71c608;fill-opacity:1" />
      <path
         d="m 118.2001,135.59744 q 0,0 4.7237,-0.0917 0.27516,0.13758 0.96308,2.20133 0.68792,2.06375 0.77964,3.57716 -0.32103,0.0917 -1.651,0.0917 -1.60514,0 -7.10847,0.18344 0,0 -2.75167,6.32883 -2.10961,0.0917 -2.24719,0.0917 h -1.05481 q -3.302,-0.13758 -3.302,-0.13758 1.97203,-6.0078 4.49439,-11.7863 7.38364,-17.06033 7.38364,-17.06033 1.97203,-0.18344 2.75166,-0.18344 l 4.67784,0.55033 q 1.00894,5.31989 4.58611,13.4373 1.60514,3.62303 3.16441,7.38364 1.55928,3.71475 2.33892,5.64091 l 0.77964,1.92617 q -0.45861,0.0917 -2.84339,0.0917 h -4.08164 q -0.18344,-0.64205 -2.20133,-5.73264 -1.97203,-5.09058 -3.89819,-9.86013 l -1.88031,-4.81542 q -1.46756,2.06375 -3.43958,7.65881 0,0.0917 -0.0917,0.27516 -0.0917,0.13759 -0.0917,0.22931 z"
         id="path170"
         style="fill:#71c608;fill-opacity:1" />
      <path
         d="m 146.54231,137.56947 q -0.27517,9.81427 -0.27517,9.81427 -0.2293,0 -0.8255,0.0459 -0.55033,0.0459 -1.74272,0.0917 H 139.709 q -0.0459,-1.92616 -0.13758,-8.94291 -0.0459,-7.01675 -0.0917,-13.29972 -0.0459,-6.32883 -0.0459,-6.604 l 3.07269,-0.0459 q 0,0 0.96308,0 l 3.16442,0.13758 q 0.0459,2.79753 0.0459,7.10847 v 5.09059 l 7.56708,-12.10733 q 2.84339,-0.18345 5.41161,-0.18345 1.14653,0 1.88031,0.0459 0.73378,0.0459 0.91722,0.0917 l 0.13758,0.0459 q -4.08163,6.78744 -9.3098,14.67555 -0.27517,0.45861 -0.41275,0.64205 1.00894,1.46756 3.302,4.86128 2.29305,3.39372 4.08164,6.05367 1.83444,2.65994 1.83444,2.65994 -0.45861,0.0917 -4.26508,-0.18345 -3.80647,-0.27516 -4.21922,-0.36688 -0.41275,-0.55034 -1.78859,-2.43064 -1.32997,-1.83445 -2.7058,-3.66889 -1.37583,-1.88031 -2.56822,-3.5313 z"
         id="path172"
         style="fill:#71c608;fill-opacity:1" />
    </g>
    <path
       d="m 177.42721,149.09033 c 1.21709,-1.45521 4.23333,-4.97417 6.69396,-7.80521 2.48708,-2.83104 4.68312,-5.37104 4.89479,-5.60917 0.34396,-0.39687 0.26458,-0.52916 -0.87312,-1.19062 -5.74146,-3.36021 -10.98021,-8.70479 -15.05479,-15.29292 -2.2225,-3.62479 -1.98438,-3.41312 -4.28625,-3.94229 -5.10646,-1.19062 -10.08063,-3.4925 -13.99646,-6.42938 -2.06375,-1.56104 -2.48708,-2.01083 -3.22792,-3.51895 -1.56104,-3.14854 -5.10645,-14.79021 -5.10645,-16.721669 0,-0.555624 0.26458,-0.582083 -3.91584,0.423334 -2.83104,0.687916 -3.38666,0.978958 -6.00604,3.174999 -4.04812,3.413125 -6.21771,5.55625 -8.59895,8.493126 l -2.56646,3.20146 -2.61938,-0.21167 c -4.73604,-0.37042 -15.26645,-2.19604 -35.030827,-6.0325 -33.04645,-6.429374 -44.55582,-8.016874 -54.371865,-7.540624 -3.307291,0.15875 -13.652498,1.11125 -13.811248,1.27 -0.02646,0.05292 1.561042,0.238125 3.571875,0.396875 17.806456,1.534583 46.143328,6.561666 69.135618,12.250209 10.794997,2.67229 24.712077,6.69396 34.739787,10.08063 5.45041,1.82562 5.52979,1.85208 6.40291,1.42875 0.87313,-0.39688 0.89958,-0.4498 0.89958,-2.14313 0,-2.24896 0.42334,-6.29709 0.9525,-8.99584 0.87313,-4.392078 2.54,-8.546036 4.78896,-11.932702 1.00542,-1.534584 1.27,-1.693333 1.48167,-0.9525 1.74625,6.111874 3.51896,11.879792 3.99521,13.017502 0.71437,1.79916 6.37645,8.44021 8.28145,9.71021 0.71438,0.47625 3.22792,1.69333 5.63563,2.72521 5.37104,2.27541 6.61458,3.09562 8.94291,5.87374 2.98979,3.57188 5.715,6.00604 12.27667,10.90084 l 3.06916,2.30187 -1.74625,2.83104 c -2.48708,4.07458 -4.20687,7.03792 -5.34458,9.33979 -0.92604,1.82563 -1.13771,2.06375 -2.30187,2.56646 -0.79375,0.34396 -1.11125,0.60854 -0.87313,0.68792 0.21167,0.0529 0.58209,0.1852 0.79375,0.26458 0.74084,0.23812 0.97896,0.0265 3.175,-2.61937 z"
       id="path1545"
       style="fill:#71c608;fill-opacity:1;stroke:none;stroke-width:0.3;stroke-linecap:round;stroke-linejoin:bevel;stroke-miterlimit:4;stroke-dasharray:none;stroke-opacity:1;paint-order:normal"
       sodipodi:nodetypes="ccccccccsccccccccccccsccscscccccccccc" />
    <g
       aria-label="QR Generator"
       id="text3710"
       style="font-size:12.3472px;font-family:Chailce-Noggin;-inkscape-font-specification:Chailce-Noggin;fill:#71c608;stroke-width:0.264999">
      <path
         d="m 56.109787,159.95763 q -1.111248,0.49389 -2.185455,0.49389 h -0.07408 q -1.432275,-0.0247 -2.679342,-0.75318 -1.247068,-0.71614 -2.012594,-1.9879 -0.765526,-1.27176 -0.765526,-2.80281 0,-0.32103 0.01235,-0.48154 0.111125,-1.39524 0.555624,-2.46944 0.444499,-1.08656 1.01247,-1.70392 0.580319,-0.61736 1.308804,-1.01247 0.728484,-0.39511 1.32115,-0.51858 0.605013,-0.13582 1.197678,-0.13582 0.592666,0 1.23472,0.13582 0.654402,0.12347 1.432276,0.51858 0.790221,0.39511 1.395233,1.01247 0.605013,0.60502 1.012471,1.69157 0.419805,1.08655 0.419805,2.48179 0,2.37066 -1.14829,3.91406 0.864304,2.03729 1.000123,2.55587 -0.172861,0.037 -1.098901,0.037 h -1.580441 q -0.01235,-0.0741 -0.358069,-0.97543 z m 0.913693,-4.19804 q 0.135819,-0.54328 0.135819,-1.3335 0,-0.95074 -0.321027,-1.70392 -0.30868,-0.75318 -0.814916,-1.18533 -0.506235,-0.4445 -1.061859,-0.66675 -0.555624,-0.23459 -1.111248,-0.23459 -0.555624,0 -1.111248,0.23459 -0.555624,0.22225 -1.061859,0.66675 -0.506235,0.43215 -0.827262,1.18533 -0.308681,0.75318 -0.308681,1.70392 0,1.88912 0.888999,2.83985 0.901346,0.93839 2.457093,0.93839 0.814915,0 1.444622,-0.27164 l -1.111248,-3.00037 q 0.0247,0 2.358315,-0.22225 0.0247,0.0617 0.07408,0.18521 0.04939,0.11113 0.160513,0.37042 0.111125,0.24694 0.209903,0.49389 z m -0.4445,-1.04952 z"
         style="stroke-width:0.265"
         id="path9073" />
      <path
         d="m 62.987185,149.79589 q 0.06174,-0.0617 0.172861,-0.14817 0.123472,-0.0988 0.493888,-0.34572 0.370416,-0.24694 0.753179,-0.43215 0.39511,-0.19756 0.963082,-0.34572 0.580318,-0.16052 1.135942,-0.16052 0.753179,0 1.469317,0.32103 0.728485,0.32103 1.308803,0.91369 0.592666,0.58032 0.950735,1.50636 0.358068,0.91369 0.358068,2.02494 0,0.86431 -0.283985,1.61749 -0.271639,0.74083 -0.728485,1.25941 -0.456846,0.50623 -0.975429,0.83961 -0.506235,0.33337 -1.049512,0.50623 1.074207,2.46944 1.172984,2.86455 -0.185208,0.0371 -1.111248,0.0371 h -1.580442 q -0.185208,-0.50624 -0.70379,-2.0126 -0.03704,-0.11112 -0.234597,-0.53093 -0.197555,-0.4198 -0.222249,-0.50623 l -0.901346,-0.32103 q -0.07408,-0.4445 -0.07408,-1.45697 V 154.352 q 1.160637,0.65441 1.975552,0.65441 0.456846,0 0.938387,-0.19756 0.481541,-0.19755 0.876651,-0.66675 0.395111,-0.48154 0.395111,-1.12359 0,-0.95074 -0.61736,-1.48167 -0.61736,-0.53093 -1.395234,-0.53093 h -0.03704 q -0.469193,0.0123 -1.135942,0.24695 -0.666749,0.23459 -1.23472,0.64205 -0.567971,0.40746 -0.679096,0.80257 -0.09878,0.38276 -0.148166,1.46932 -0.04939,1.08655 -0.06174,2.38301 0,1.28411 -0.01235,1.48166 l -0.08643,2.13607 q -0.691443,0.037 -1.333498,0.037 h -0.92604 v -11.07544 q 0.506235,-0.0864 1.247068,-0.12347 0.493888,-0.0247 0.691443,-0.0247 l 0.691443,0.0247 z"
         style="stroke-width:0.265"
         id="path9075" />
      <path
         d="m 83.965092,156.51276 q 0,0 -0.172861,3.07446 -0.234597,0.0988 -0.629707,0.24694 -0.382763,0.16052 -1.395234,0.41981 -1.01247,0.25929 -1.777997,0.25929 -0.407457,0 -0.864304,-0.0741 -0.456846,-0.0741 -1.024817,-0.27163 -0.567972,-0.18521 -1.098901,-0.48154 -0.518583,-0.28399 -1.024818,-0.76553 -0.506235,-0.48154 -0.876651,-1.07421 -0.370416,-0.60501 -0.605013,-1.46931 -0.22225,-0.86431 -0.22225,-1.87678 0,-1.39523 0.382764,-2.48179 0.39511,-1.08655 0.975429,-1.69156 0.580318,-0.61736 1.333497,-1.01247 0.753179,-0.39511 1.382887,-0.51859 0.629707,-0.13581 1.222372,-0.13581 1.5434,0 3.062106,0.87665 0.135819,0.0864 0.135819,0.0864 0.01235,0.32102 0.01235,0.69144 0,0.38276 -0.01235,0.55562 l -0.08643,0.81492 q -0.172861,-0.11113 -0.481541,-0.27164 -0.296333,-0.16051 -1.086554,-0.43215 -0.777873,-0.27164 -1.395233,-0.27164 -0.555624,0 -1.111248,0.2346 -0.555624,0.22225 -1.061859,0.66675 -0.506236,0.43215 -0.827263,1.18533 -0.30868,0.75318 -0.30868,1.70391 0,0.93839 0.30868,1.69157 0.30868,0.75318 0.802568,1.19768 0.493888,0.43215 1.037165,0.66674 0.555624,0.2346 1.098901,0.2346 h 0.06174 q 1.790344,-0.037 2.210149,-0.46919 0,-0.0617 -0.01235,-0.19756 0,-0.14816 0,-0.22225 0,-0.19755 0,-0.59266 0.01235,-0.40746 0.01235,-0.60502 v -0.43215 q -0.432152,0.0123 -1.469317,0.0123 h -1.358192 v -0.82726 q 0,-0.0617 -0.01235,-0.18521 0,-0.12347 0,-0.17286 l 0.02469,-1.00012 q 0.148166,-0.0494 0.864304,-0.0494 0.543277,0 0.92604,0.0123 0.01235,0 1.284109,0.0617 l 1.839733,0.18521 v 0.0988 q 0,0.13581 -0.01235,0.45684 -0.01235,0.30868 -0.0247,0.90135 -0.01235,0.58032 -0.02469,1.24706 z"
         style="stroke-width:0.265"
         id="path9077" />
      <path
         d="m 89.508993,157.32768 -0.679096,1.71626 q -2.197802,-0.0247 -4.086924,-0.0988 0.172861,-1.49401 0.172861,-3.39548 0,-0.11112 -0.01235,-0.33337 0,-0.2346 0,-0.35807 -0.02469,-1.48166 -0.02469,-1.91382 l 0.02469,-1.67922 q 0.876651,-0.0617 1.864427,-0.0988 0.83961,-0.0247 1.308803,-0.0247 l 0.963082,0.0123 q -0.01235,-0.0247 0.580318,1.72861 -2.271884,0.0988 -2.728731,0.0988 h -0.09878 q -0.09878,0.59266 -0.111125,0.91369 v 0.4198 l 2.234843,0.14817 q 0.01235,0.28399 0.01235,0.58032 0,0.30868 -0.02469,0.58032 l -0.04939,0.32102 h -0.283986 q -0.679096,0 -1.0989,-0.0247 l -0.851957,-0.0617 q 0.01235,0.25929 0.01235,0.62971 v 0.29633 q -0.02469,0.56797 -0.02469,0.56797 0.827262,-0.0123 1.71626,-0.0247 z"
         style="stroke-width:0.265"
         id="path9079" />
      <path
         d="m 96.497514,153.96924 q 0,0.45685 -0.22225,5.08705 -0.407458,-0.0123 -0.851957,-0.0494 l -0.740832,-0.0617 q -0.111125,-0.13582 -0.950734,-1.46931 -0.148167,-0.24695 -0.407458,-0.64206 -0.246944,-0.40746 -0.61736,-0.98777 -0.370416,-0.59267 -0.580318,-0.93839 -0.02469,0.93839 -0.02469,1.02482 l -0.08643,3.02506 q -0.06174,0 -0.22225,0.0123 -0.148166,0.0123 -0.469193,0.0247 H 90.24983 q -0.01235,-0.51858 -0.03704,-2.4077 -0.01235,-1.88912 -0.02469,-3.58069 -0.01235,-1.70391 -0.01235,-1.778 l 0.827262,-0.0123 h 0.259292 l 0.851956,0.037 q 0.283986,0.33337 1.580442,2.51883 0.01235,0.0123 0.432152,0.74083 0.419805,0.71614 0.432152,0.72848 0.04939,0.0864 0.234597,0.40746 v -4.3956 q 0.135819,-0.0247 0.827262,-0.0247 0.30868,0 0.506236,0.0123 0.197555,0.0123 0.246944,0.0247 l 0.03704,0.0123 q 0.08643,1.44462 0.08643,2.69169 z"
         style="stroke-width:0.265"
         id="path9081" />
      <path
         d="m 102.25132,157.32768 -0.67909,1.71626 q -2.197806,-0.0247 -4.086928,-0.0988 0.172861,-1.49401 0.172861,-3.39548 0,-0.11112 -0.01235,-0.33337 0,-0.2346 0,-0.35807 -0.02469,-1.48166 -0.02469,-1.91382 l 0.02469,-1.67922 q 0.876651,-0.0617 1.864427,-0.0988 0.839607,-0.0247 1.308807,-0.0247 l 0.96308,0.0123 q -0.0123,-0.0247 0.58032,1.72861 -2.27189,0.0988 -2.728735,0.0988 h -0.09878 q -0.09878,0.59266 -0.111125,0.91369 v 0.4198 l 2.234848,0.14817 q 0.0123,0.28399 0.0123,0.58032 0,0.30868 -0.0247,0.58032 l -0.0494,0.32102 h -0.28399 q -0.67909,0 -1.0989,-0.0247 l -0.851954,-0.0617 q 0.01235,0.25929 0.01235,0.62971 v 0.29633 q -0.0247,0.56797 -0.0247,0.56797 0.827261,-0.0123 1.716261,-0.0247 z"
         style="stroke-width:0.265"
         id="path9083" />
      <path
         d="m 104.69608,151.7344 q 0.12347,-0.11113 0.33337,-0.27164 0.2099,-0.17286 0.85196,-0.4445 0.64205,-0.28399 1.25941,-0.28399 1.1236,0 1.97555,0.90135 0.86431,0.90135 0.86431,2.4077 0,1.16064 -0.62971,1.91382 -0.62971,0.75318 -1.46932,1.01247 0.33338,0.76553 0.53093,1.25942 0.19756,0.50623 0.2346,0.6297 l 0.037,0.11113 q -0.12347,0.0247 -0.76552,0.0247 h -1.09891 q -0.13581,-0.34572 -0.49388,-1.39523 -0.0494,-0.13582 -0.30868,-0.72849 l -0.62971,-0.22225 q -0.0494,-0.30868 -0.0494,-1.01247 v -0.74083 q 0.80257,0.45685 1.37054,0.45685 0.51858,0 1.02482,-0.35807 0.50623,-0.37042 0.50623,-1.02482 0,-0.66675 -0.43215,-1.02482 -0.4198,-0.37041 -0.96308,-0.37041 h -0.0247 q -0.53092,0.0123 -1.27176,0.38276 -0.74083,0.37042 -0.85195,0.79022 -0.0741,0.25929 -0.11113,1.02482 -0.0247,0.75318 -0.037,1.65452 0,0.889 0,1.02482 l -0.0617,1.48167 q -0.48154,0.0247 -0.92604,0.0247 h -0.64205 v -7.69231 q 0.34572,-0.0617 0.8643,-0.0864 0.17286,-0.0123 0.48154,-0.0123 l 0.48155,0.0123 z"
         style="stroke-width:0.265"
         id="path9085" />
      <path
         d="m 112.5242,155.78428 q 0,0 1.27176,-0.0247 0.0741,0.037 0.25929,0.59266 0.18521,0.55563 0.20991,0.96308 -0.0864,0.0247 -0.4445,0.0247 -0.43216,0 -1.91382,0.0494 0,0 -0.74083,1.70391 -0.56797,0.0247 -0.60501,0.0247 h -0.28399 q -0.889,-0.037 -0.889,-0.037 0.53093,-1.61748 1.21003,-3.17323 1.9879,-4.59316 1.9879,-4.59316 0.53093,-0.0494 0.74083,-0.0494 l 1.25941,0.14817 q 0.27164,1.43228 1.23472,3.61773 0.43216,0.97543 0.85196,1.9879 0.4198,1.00012 0.62971,1.51871 l 0.2099,0.51858 q -0.12347,0.0247 -0.76553,0.0247 h -1.0989 q -0.0494,-0.17286 -0.59266,-1.5434 -0.53093,-1.37054 -1.04952,-2.65465 l -0.50623,-1.29645 q -0.39511,0.55562 -0.92604,2.06198 0,0.0247 -0.0247,0.0741 -0.0247,0.037 -0.0247,0.0617 z"
         style="stroke-width:0.265"
         id="path9087" />
      <path
         d="m 115.88265,151.09234 q 0.87665,-0.0494 2.14841,-0.0494 0.889,0 1.88912,0.0247 1.00012,0.0124 1.55575,0.037 l 0.55562,0.0247 q 0.0617,0.0864 0.0617,0.55562 0,0.43215 -0.0617,0.98778 -0.14817,0.0123 -2.24719,0.0123 -0.0864,1.96321 -0.25929,6.18595 -0.48154,0.0247 -0.92604,0.0247 h -0.64206 v -6.21064 q -0.53092,0 -1.27176,0.0124 -0.72848,0 -0.83961,0 -0.0741,-0.4445 -0.0741,-0.77787 0,-0.2346 0.0247,-0.4445 0.0247,-0.20991 0.0494,-0.29634 z"
         style="stroke-width:0.265"
         id="path9089" />
      <path
         d="m 125.43938,151.03061 q 0.40746,0 0.82727,0.0988 0.4198,0.0864 0.91369,0.35806 0.50624,0.27164 0.90135,0.70379 0.40745,0.41981 0.70379,1.17299 0.30868,0.75318 0.39511,1.71626 0.0123,0.11112 0.0123,0.33337 0,1.60514 -1.13594,2.71639 -1.12359,1.11125 -2.65465,1.13594 h -0.0494 q -0.40745,0 -0.8643,-0.11112 -0.4445,-0.0988 -0.97543,-0.39511 -0.51858,-0.29634 -0.93839,-0.74084 -0.40745,-0.45684 -0.67909,-1.21002 -0.27164,-0.76553 -0.27164,-1.72861 0,-0.96308 0.28399,-1.71626 0.28398,-0.75318 0.70379,-1.17299 0.4198,-0.43215 0.96308,-0.70379 0.55562,-0.27163 1.00012,-0.35806 0.4445,-0.0988 0.8643,-0.0988 z m -0.0617,6.67983 q 1.07421,0 1.69157,-0.6544 0.6297,-0.66675 0.6297,-1.97555 0,-1.25941 -0.72848,-1.93851 -0.71614,-0.69144 -1.5681,-0.69144 -0.85195,0 -1.58044,0.69144 -0.71614,0.6791 -0.71614,1.93851 0,1.29646 0.60502,1.9632 0.61736,0.66675 1.66687,0.66675 z"
         style="stroke-width:0.265"
         id="path9091" />
      <path
         d="m 131.35369,151.7344 q 0.12347,-0.11113 0.33337,-0.27164 0.2099,-0.17286 0.85196,-0.4445 0.64205,-0.28399 1.25941,-0.28399 1.1236,0 1.97556,0.90135 0.8643,0.90135 0.8643,2.4077 0,1.16064 -0.62971,1.91382 -0.6297,0.75318 -1.46931,1.01247 0.33337,0.76553 0.53093,1.25942 0.19755,0.50623 0.23459,0.6297 l 0.037,0.11113 q -0.12347,0.0247 -0.76552,0.0247 h -1.0989 q -0.13582,-0.34572 -0.49389,-1.39523 -0.0494,-0.13582 -0.30868,-0.72849 l -0.62971,-0.22225 q -0.0494,-0.30868 -0.0494,-1.01247 v -0.74083 q 0.80257,0.45685 1.37054,0.45685 0.51858,0 1.02482,-0.35807 0.50623,-0.37042 0.50623,-1.02482 0,-0.66675 -0.43215,-1.02482 -0.4198,-0.37041 -0.96308,-0.37041 h -0.0247 q -0.53093,0.0123 -1.27177,0.38276 -0.74083,0.37042 -0.85195,0.79022 -0.0741,0.25929 -0.11113,1.02482 -0.0247,0.75318 -0.037,1.65452 0,0.889 0,1.02482 l -0.0617,1.48167 q -0.48155,0.0247 -0.92604,0.0247 h -0.64206 v -7.69231 q 0.34572,-0.0617 0.86431,-0.0864 0.17286,-0.0123 0.48154,-0.0123 l 0.48154,0.0123 z"
         style="stroke-width:0.265"
         id="path9093" />
    </g>
  </g>
</svg>
