<svg id="Capa_1" enable-background="new 0 0 512 512" height="512" viewBox="0 0 512 512" width="512" xmlns="http://www.w3.org/2000/svg"><g><path d="m478.004 496.257h-444.008c-18.775 0-33.996-15.22-33.996-33.996v-159.163c0-18.775 15.221-33.996 33.996-33.996h444.008c18.775 0 33.996 15.221 33.996 33.996v159.163c0 18.776-15.221 33.996-33.996 33.996z" fill="#528fd8"/><g fill="#ebebeb"><path d="m255.947 312.899c-7.681 0-13.907 6.227-13.907 13.907v112.208c0 7.681 6.227 13.907 13.907 13.907s13.907-6.227 13.907-13.907v-112.207c0-7.681-6.226-13.908-13.907-13.908z"/><path d="m386.636 340.252c7.681 0 13.907-6.227 13.907-13.907s-6.227-13.907-13.907-13.907h-53.773c-7.681 0-13.907 6.227-13.907 13.907v112.208c0 7.681 6.227 13.907 13.907 13.907s13.907-6.227 13.907-13.907v-49.939h39.865c7.681 0 13.907-6.227 13.907-13.907s-6.227-13.907-13.907-13.907h-39.865v-20.547h39.866z"/><path d="m451.908 312.437c-7.681 0-13.907 6.227-13.907 13.907v112.208c0 7.681 6.227 13.907 13.907 13.907 7.681 0 13.907-6.227 13.907-13.907v-112.207c0-7.681-6.227-13.908-13.907-13.908z"/><path d="m192.915 314.389c-7.435-1.924-15.024 2.543-16.949 9.978l-20.544 79.358-19.653-29.067c-2.586-3.825-6.903-6.118-11.521-6.118s-8.935 2.292-11.521 6.118l-19.653 29.067-20.544-79.358c-1.925-7.435-9.514-11.903-16.949-9.978-7.436 1.925-11.903 9.513-9.978 16.949l28.267 109.192c1.37 5.293 5.715 9.292 11.102 10.22.79.136 1.58.202 2.364.202 4.565 0 8.905-2.253 11.519-6.118l25.393-37.556 25.393 37.556c3.063 4.529 8.494 6.843 13.883 5.916 5.388-.928 9.732-4.927 11.102-10.22l28.268-109.192c1.924-7.436-2.543-15.024-9.979-16.949z"/></g><path d="m205.071 213.796c6.19 5.015 14.597 4.673 20.591-.612 8.184-7.217 18.547-11.552 29.837-11.605 11.291-.053 21.693 4.184 29.944 11.324 6.043 5.229 14.453 5.492 20.595.419 8.766-7.239 9.093-21.766.515-29.293-14.079-12.353-31.898-19.708-51.228-19.617s-37.079 7.613-51.042 20.098c-8.507 7.607-8.045 22.13.788 29.286z" fill="#838383"/><path d="m150.104 169.095.012.01c6.886 5.579 16.369 4.478 22.26-2.34 20.916-24.206 50.355-39.367 82.985-39.52s62.209 14.73 83.35 38.739c5.954 6.762 15.447 7.774 22.281 2.131l.012-.01c8.119-6.704 9.047-19.769 1.985-27.815-27.311-31.114-65.58-50.41-107.801-50.211-42.222.198-80.309 19.853-107.329 51.222-6.986 8.111-5.936 21.167 2.245 27.794z" fill="#5a5a5a"/><g fill="#444"><path d="m95.749 124.892.017.014c7.017 5.685 16.823 4.545 22.538-2.693 33.335-42.226 82.305-69.044 136.919-69.301s103.832 26.101 137.559 68.012c5.781 7.184 15.598 8.232 22.562 2.481l.017-.014c7.86-6.49 9.061-19.049 2.535-27.156-39.934-49.602-98.196-80.794-162.846-80.49s-122.619 32.042-162.089 82.016c-6.451 8.168-5.132 20.715 2.788 27.131z"/><ellipse cx="255.485" cy="264.425" rx="20.963" ry="21.048"/></g></g></svg>